<?xml version="1.0" standalone="no"?>
<!DOCTYPE svg PUBLIC "-//W3C//DTD SVG 20010904//EN"
 "http://www.w3.org/TR/2001/REC-SVG-20010904/DTD/svg10.dtd">
<svg version="1.0" xmlns="http://www.w3.org/2000/svg"
 width="449.496563pt" height="530.872498pt" viewBox="0 0 449.496563 530.872498"
 preserveAspectRatio="xMidYMid meet">
<metadata>
Created by potrace 1.16, written by Peter Selinger 2001-2019
</metadata>
<g transform="translate(-158.208259,650.873597) scale(0.100000,-0.100000)"
fill="#000000" stroke="none">
<path d="M4899 6506 c-15 -15 -204 -60 -324 -77 -230 -32 -312 -59 -431 -144
-157 -112 -301 -362 -305 -530 -1 -22 -4 -51 -9 -65 -7 -24 -9 -22 -30 25
-142 319 -293 545 -362 545 -42 0 -134 -40 -178 -77 -58 -50 -54 -71 29 -173
132 -164 212 -302 281 -490 56 -151 130 -480 116 -516 -8 -22 -36 -16 -171 36
-218 84 -452 128 -620 115 -346 -25 -623 -152 -865 -394 -243 -244 -387 -546
-436 -915 -63 -474 129 -1128 524 -1781 163 -270 398 -543 592 -689 84 -63
224 -131 324 -156 140 -35 261 -25 451 40 183 62 249 73 389 68 110 -5 134
-10 263 -52 242 -80 351 -92 502 -56 280 67 556 307 836 725 344 515 563 1100
600 1606 8 101 -8 283 -37 424 -93 462 -376 844 -773 1043 -97 49 -203 85
-339 114 -143 32 -400 32 -532 0 -112 -26 -251 -72 -339 -112 -63 -28 -125
-39 -125 -22 0 80 -12 230 -24 311 -19 122 -15 134 40 107 20 -9 72 -22 116
-28 264 -37 574 116 736 365 115 176 172 422 154 662 -6 80 -9 90 -27 93 -12
2 -23 1 -26 -2z m-1854 -1656 c128 -15 241 -45 385 -103 176 -70 241 -87 355
-94 125 -7 220 14 414 91 226 90 276 101 486 101 157 0 191 -3 265 -23 506
-139 861 -669 837 -1252 -22 -546 -380 -1325 -818 -1784 -119 -125 -197 -186
-299 -235 -74 -36 -76 -36 -200 -35 -121 0 -130 2 -270 47 -205 67 -282 81
-410 74 -78 -4 -130 -13 -205 -37 -266 -83 -298 -91 -383 -91 -99 0 -169 19
-253 70 -190 116 -427 390 -634 735 -193 322 -353 735 -410 1059 -103 582 150
1145 621 1381 114 57 248 91 414 105 8 0 56 -4 105 -9z"/>
</g>
</svg>
