<?xml version="1.0" standalone="no"?>
<!DOCTYPE svg PUBLIC "-//W3C//DTD SVG 20010904//EN"
 "http://www.w3.org/TR/2001/REC-SVG-20010904/DTD/svg10.dtd">
<svg version="1.0" xmlns="http://www.w3.org/2000/svg"
 width="1056.661756pt" height="1488.508813pt" viewBox="0 0 1056.661756 1488.508813"
 preserveAspectRatio="xMidYMid meet">

<g transform="translate(-471.748039,1742.722480) scale(0.100000,-0.100000)"
fill="#000000" stroke="none">
<path d="M6420 17424 c-131 -15 -211 -31 -375 -77 -169 -47 -429 -181 -597
-307 -401 -301 -639 -713 -719 -1245 -15 -101 -15 -365 0 -470 42 -285 149
-565 311 -808 76 -115 212 -260 340 -363 77 -62 278 -192 366 -237 61 -31 219
-87 245 -87 30 0 33 -25 16 -109 -8 -42 -21 -110 -27 -151 -7 -41 -18 -111
-25 -155 -53 -310 -55 -750 -4 -1080 48 -308 117 -587 207 -830 97 -263 277
-597 450 -839 220 -307 521 -611 867 -873 98 -74 287 -199 315 -208 35 -11 22
-40 -51 -121 -159 -175 -291 -351 -432 -577 -114 -182 -328 -629 -387 -807
-133 -405 -200 -722 -222 -1060 l-3 -45 -135 3 c-391 10 -824 -152 -1152 -432
-124 -106 -282 -291 -366 -428 -210 -343 -307 -752 -282 -1183 17 -301 56
-464 185 -785 180 -449 540 -886 988 -1199 229 -159 532 -300 767 -355 191
-45 241 -50 490 -51 281 0 380 14 595 87 292 98 512 230 729 438 118 113 192
204 266 329 63 106 47 102 209 57 493 -135 1359 -155 1881 -42 41 9 89 19 105
22 17 3 52 13 78 21 26 8 53 13 60 10 7 -3 52 -58 99 -123 105 -146 173 -222
303 -336 119 -106 252 -197 395 -270 420 -216 986 -256 1495 -107 79 23 309
117 381 155 202 108 369 221 529 360 44 38 86 73 93 79 36 29 234 252 298 336
291 384 454 785 509 1247 24 201 15 466 -20 626 -59 270 -110 403 -235 626
-124 218 -391 501 -602 636 -69 44 -220 120 -345 172 -140 59 -413 112 -577
112 -115 0 -121 6 -129 131 -21 301 -163 822 -333 1225 -117 277 -219 461
-437 789 -148 224 -227 327 -285 374 -31 25 -35 33 -26 48 9 15 209 159 349
250 45 29 155 119 291 234 249 213 537 560 716 862 250 425 426 915 496 1392
33 219 37 283 36 575 -1 348 -16 502 -79 820 -26 130 -32 118 70 159 393 162
687 399 887 717 141 225 226 442 275 701 23 121 23 410 0 558 -53 353 -191
656 -432 950 -170 207 -353 347 -630 482 -355 172 -776 224 -1177 143 -113
-23 -121 -25 -258 -71 -373 -125 -704 -402 -921 -771 -40 -68 -51 -71 -156
-34 -37 13 -86 29 -108 35 -258 70 -354 94 -490 122 -88 18 -191 35 -230 38
-80 7 -75 -5 -52 125 25 140 -2 279 -76 393 -65 99 -88 95 -137 -21 -28 -66
-126 -222 -154 -245 -18 -15 -36 -7 -36 16 0 9 -16 50 -36 91 -48 99 -169 223
-264 270 -64 32 -164 57 -181 46 -13 -8 -11 -58 2 -71 29 -29 33 -218 4 -211
-6 2 -42 38 -79 80 -55 64 -80 84 -139 112 -85 41 -150 59 -198 54 -29 -3 -34
-7 -37 -31 -2 -15 10 -61 27 -102 37 -89 71 -224 71 -285 0 -92 -47 -254 -79
-275 -5 -3 -31 8 -57 25 -42 27 -57 30 -123 30 -220 0 -508 -61 -876 -185
-108 -36 -213 -65 -239 -65 -10 0 -28 25 -48 68 -34 69 -149 229 -247 340 -31
35 -101 102 -156 149 -243 206 -520 333 -846 388 -89 15 -414 28 -489 19z
m494 -906 c192 -41 403 -155 537 -289 55 -55 169 -201 169 -216 0 -15 -55 -66
-144 -134 -97 -73 -419 -373 -516 -480 -143 -157 -291 -348 -412 -533 -58 -89
-189 -338 -200 -383 -9 -34 -30 -28 -121 33 -239 165 -418 357 -506 545 -124
263 -143 487 -64 738 129 410 485 706 893 741 117 10 258 2 364 -22z m6701 -1
c312 -93 544 -267 677 -508 41 -73 96 -219 114 -300 22 -100 22 -273 1 -372
-54 -246 -223 -508 -441 -683 -88 -71 -248 -174 -270 -174 -7 0 -21 21 -31 48
-53 142 -224 434 -353 601 -123 160 -164 206 -359 399 -189 187 -265 251 -424
360 -105 72 -123 93 -114 131 9 41 81 138 164 220 74 74 211 169 307 212 54
25 193 65 284 83 56 10 395 -2 445 -17z m-4257 -253 c132 -90 219 -161 336
-274 110 -106 162 -171 203 -254 17 -36 33 -56 44 -56 10 0 48 35 86 78 148
167 239 250 389 350 114 76 261 149 386 192 95 32 99 33 135 17 21 -9 81 -28
133 -42 481 -130 963 -362 1270 -610 192 -155 233 -191 355 -312 167 -165 290
-316 430 -528 130 -198 143 -220 223 -380 170 -340 292 -759 337 -1165 21
-192 21 -567 0 -739 -34 -268 -141 -686 -235 -911 -34 -81 -207 -422 -238
-467 -10 -15 -45 -68 -77 -118 -206 -319 -509 -629 -860 -880 -282 -202 -667
-380 -1005 -465 -483 -122 -1023 -177 -1473 -151 -581 33 -1035 128 -1472 308
-136 56 -198 87 -345 173 -188 110 -365 234 -485 340 -116 103 -381 376 -447
460 -153 197 -342 522 -426 730 -48 119 -138 371 -150 420 -34 135 -62 266
-75 350 -9 52 -22 131 -29 175 -18 111 -18 684 0 820 50 368 128 662 259 970
94 220 127 280 311 559 132 199 228 314 441 526 376 374 707 585 1186 756 113
41 586 174 616 174 15 0 31 5 34 10 13 21 49 7 143 -56z m-598 -7050 c186 -45
341 -72 660 -114 250 -33 767 -43 1035 -21 242 21 651 87 868 141 111 28 130
26 162 -12 80 -96 322 -503 447 -753 206 -408 408 -987 482 -1375 17 -91 46
-262 49 -295 2 -16 -27 -35 -153 -100 -409 -213 -667 -445 -927 -835 -195
-293 -302 -533 -392 -880 -70 -272 -87 -567 -51 -870 10 -87 5 -96 -60 -111
-79 -18 -303 -49 -455 -64 -384 -38 -961 -8 -1245 63 -41 11 -88 22 -104 26
-28 7 -28 7 -22 67 13 112 7 479 -9 594 -37 266 -96 487 -191 713 -53 126
-100 214 -203 380 -239 386 -640 751 -1058 964 -51 26 -52 31 -23 168 11 52
29 140 40 195 25 119 91 370 127 475 155 462 292 786 471 1115 98 181 337 547
364 559 18 7 76 -2 188 -30z m-1869 -2773 c396 -74 721 -254 1050 -581 124
-123 160 -167 241 -290 109 -166 149 -238 211 -383 61 -142 84 -213 126 -388
54 -230 56 -539 4 -729 -47 -172 -106 -299 -202 -434 -51 -72 -180 -212 -256
-277 -133 -114 -317 -203 -544 -261 -121 -32 -134 -33 -321 -33 -165 0 -211 4
-302 23 -233 50 -416 122 -603 237 -402 248 -630 495 -840 914 -139 279 -197
525 -197 836 0 202 17 312 72 476 102 305 340 598 604 743 66 37 249 110 311
125 153 37 178 39 356 40 144 1 208 -3 290 -18z m6734 -6 c207 -42 352 -101
509 -208 335 -229 545 -581 591 -988 20 -177 19 -257 -5 -419 -45 -306 -136
-551 -304 -813 -125 -195 -233 -317 -415 -470 -108 -91 -137 -112 -236 -174
-225 -140 -436 -223 -710 -279 -134 -28 -464 -26 -590 4 -276 65 -467 173
-666 378 -230 238 -341 493 -380 871 -19 183 6 385 78 628 65 220 139 381 266
577 270 415 677 721 1144 858 222 66 500 79 718 35z"/>
<path d="M8027 13084 c-242 -75 -381 -336 -301 -568 44 -129 142 -240 259
-297 62 -30 79 -33 155 -34 131 0 216 40 323 151 153 160 196 335 120 497 -36
76 -116 166 -181 204 -103 60 -265 81 -375 47z"/>
<path d="M11750 13082 c-101 -38 -172 -93 -226 -177 -43 -69 -64 -144 -64
-235 0 -97 21 -168 76 -252 60 -93 125 -153 212 -195 70 -34 76 -35 170 -31
124 4 186 33 287 133 121 122 171 249 146 381 -31 171 -150 311 -316 373 -71
27 -217 28 -285 3z"/>
<path d="M9780 12354 c-275 -32 -503 -105 -576 -186 -77 -84 -76 -204 3 -324
45 -69 181 -198 271 -258 75 -49 242 -135 345 -176 31 -12 60 -27 64 -33 3 -6
9 -123 13 -261 8 -286 8 -288 -67 -356 -85 -80 -172 -98 -305 -64 -145 37
-250 124 -338 279 -81 145 -135 176 -202 116 -31 -28 -33 -33 -33 -98 0 -59 5
-78 37 -141 104 -202 260 -334 468 -393 85 -25 263 -26 341 -3 65 20 180 76
198 98 18 22 35 20 79 -7 20 -13 75 -40 122 -62 79 -36 93 -39 193 -43 133 -5
217 12 336 70 178 87 356 312 369 463 4 55 2 64 -22 93 -31 36 -86 55 -121 42
-28 -11 -49 -41 -105 -147 -53 -102 -123 -181 -198 -226 -79 -48 -115 -57
-219 -58 -81 -1 -94 1 -134 26 -56 34 -126 101 -147 140 -15 26 -17 63 -16
273 1 278 -3 266 91 296 98 31 227 97 343 175 121 83 271 242 307 328 17 42
20 134 4 175 -50 132 -291 227 -669 263 -177 17 -279 17 -432 -1z"/>
</g>
</svg>
