<?xml version="1.0" standalone="no"?>
<!DOCTYPE svg PUBLIC "-//W3C//DTD SVG 20010904//EN"
 "http://www.w3.org/TR/2001/REC-SVG-20010904/DTD/svg10.dtd">
<svg version="1.0" xmlns="http://www.w3.org/2000/svg"
 width="1027.282660pt" height="1559.629081pt" viewBox="0 0 1027.282660 1559.629081"
 preserveAspectRatio="xMidYMid meet">

<g transform="translate(-606.065346,1787.902989) scale(0.100000,-0.100000)"
fill="#000000" stroke="none">
<path d="M7465 17858 c-51 -40 -73 -118 -115 -423 -48 -342 -63 -779 -35
-1025 16 -142 50 -321 95 -490 16 -63 44 -172 61 -242 l32 -127 -35 -68 c-78
-150 -151 -417 -184 -678 -17 -138 -21 -516 -6 -556 11 -28 46 -41 147 -54 44
-6 158 -25 330 -55 28 -5 172 -34 320 -65 149 -31 290 -60 315 -65 188 -37
550 -129 568 -143 18 -15 50 5 97 61 22 27 64 68 93 92 145 121 256 362 348
760 64 278 74 346 124 810 27 247 60 1038 47 1093 -7 27 -8 27 -98 27 -129 0
-285 -25 -477 -76 -52 -14 -104 -24 -117 -22 -13 2 -179 157 -426 400 -363
356 -457 443 -688 638 -110 93 -241 192 -279 212 -48 24 -83 23 -117 -4z
m1230 -2648 c4 -6 -5 -34 -19 -63 -85 -180 -73 -449 27 -603 42 -65 53 -49 93
131 31 144 30 271 -6 400 -32 114 -32 110 20 108 65 -3 173 -61 244 -130 69
-67 148 -183 170 -251 14 -41 14 -53 2 -93 -22 -70 -39 -99 -95 -154 -213
-212 -539 -204 -777 18 -103 96 -234 263 -278 352 -20 41 -36 80 -36 88 0 46
166 122 395 182 95 25 248 34 260 15z"/>
<path d="M12030 17854 c-98 -43 -461 -357 -824 -713 -258 -254 -235 -231 -390
-389 -126 -129 -130 -132 -172 -132 -24 0 -82 9 -129 20 -222 52 -359 72 -481
73 -50 0 -97 -4 -104 -8 -10 -6 -12 -91 -7 -409 7 -445 33 -846 68 -1051 43
-250 48 -275 91 -445 70 -272 171 -517 281 -680 17 -25 76 -89 131 -142 l100
-98 60 0 c36 0 82 8 111 19 28 10 73 22 100 26 28 4 79 13 115 20 36 8 108 21
160 30 52 10 187 37 300 61 211 44 378 78 675 135 94 18 176 38 184 45 53 46
53 395 0 689 -32 178 -91 362 -169 529 l-49 107 28 107 c15 59 49 177 74 262
46 158 95 383 119 545 16 112 16 519 -1 700 -12 134 -34 296 -51 375 -5 25
-17 83 -26 129 -37 187 -90 240 -194 195z m-750 -2688 c170 -63 284 -126 288
-158 12 -102 -194 -388 -351 -485 -218 -136 -448 -152 -622 -42 -65 41 -175
154 -199 202 -25 54 -15 99 46 201 68 114 128 180 215 237 115 75 223 101 393
95 96 -3 116 -8 230 -50z"/>
<path d="M10885 15158 c-61 -171 -57 -384 11 -575 31 -85 86 -38 130 112 27
92 25 251 -4 337 -33 95 -60 132 -100 136 -20 2 -34 -2 -37 -10z"/>
<path d="M6122 14293 c-44 -8 -59 -96 -17 -100 11 -1 106 -7 210 -13 105 -6
255 -18 335 -25 80 -8 206 -17 281 -21 144 -7 179 0 179 35 0 24 -41 41 -125
52 -257 32 -468 52 -670 64 -55 3 -116 7 -135 9 -19 2 -45 1 -58 -1z"/>
<path d="M13190 14279 c-230 -16 -512 -47 -595 -64 -11 -2 -33 -16 -48 -31
-23 -21 -26 -28 -15 -41 14 -17 136 -14 453 12 94 8 251 19 350 25 99 6 189
12 200 13 15 2 21 10 23 38 3 30 -1 37 -23 47 -29 13 -166 14 -345 1z"/>
<path d="M7321 14076 c-9 -11 -6 -29 14 -88 15 -40 40 -111 56 -158 16 -46 40
-101 54 -122 22 -33 31 -38 63 -38 20 0 335 -1 699 -2 655 -2 663 -2 690 19
17 12 28 30 28 43 0 35 -55 53 -345 115 -91 20 -183 40 -205 45 -48 12 -261
57 -330 70 -75 14 -191 37 -270 54 -71 14 -191 35 -320 56 -38 6 -82 14 -96
16 -15 3 -31 -1 -38 -10z"/>
<path d="M12210 14073 c-14 -2 -54 -10 -90 -18 -69 -15 -136 -28 -370 -70 -80
-14 -201 -39 -270 -55 -69 -16 -226 -49 -350 -74 -393 -79 -440 -93 -440 -125
0 -26 36 -59 72 -66 18 -3 330 -5 694 -3 544 2 664 5 678 17 22 18 49 82 93
215 54 162 51 190 -17 179z"/>
<path d="M9357 13957 c-63 -23 -75 -106 -26 -180 41 -62 94 -87 183 -87 61 0
70 -3 97 -29 22 -22 29 -39 30 -68 0 -53 23 -173 37 -200 12 -21 84 -83 97
-83 15 0 86 64 100 90 8 15 23 69 33 121 34 161 43 169 173 162 74 -4 88 -1
124 19 21 13 54 43 72 66 27 36 33 53 33 93 0 57 -21 85 -72 94 -52 9 -857 11
-881 2z"/>
<path d="M12361 13737 c-32 -16 -49 -43 -35 -57 10 -10 91 -19 349 -40 282
-23 440 -41 685 -76 136 -20 232 -23 237 -8 5 14 -97 60 -172 78 -201 49 -337
69 -660 96 -267 23 -371 25 -404 7z"/>
<path d="M6850 13729 c-280 -20 -698 -99 -766 -144 -27 -18 -31 -40 -8 -49 15
-6 106 4 209 23 186 34 554 74 830 90 83 5 164 14 180 21 l30 11 -33 30 -32
29 -153 -1 c-83 -1 -199 -5 -257 -10z"/>
<path d="M7578 13551 c-26 -4 -51 -10 -55 -14 -9 -9 39 -101 103 -198 50 -75
119 -143 139 -136 94 37 538 135 685 152 59 6 198 27 319 47 58 10 77 17 88
35 14 22 13 26 -11 62 -25 36 -31 39 -89 45 -97 9 -1126 16 -1179 7z"/>
<path d="M11310 13550 c-278 -4 -515 -10 -526 -14 -28 -9 -59 -95 -41 -112 12
-11 49 -18 257 -50 318 -48 547 -90 734 -136 89 -21 134 -28 145 -21 24 14
156 213 176 266 28 75 24 77 -117 75 -68 -1 -350 -4 -628 -8z"/>
<path d="M10758 13279 c-12 -6 -18 -22 -18 -44 0 -52 43 -77 226 -136 242 -77
368 -126 495 -191 63 -32 122 -56 130 -53 26 10 201 224 196 240 -4 11 -10 13
-197 54 -140 32 -254 53 -550 101 -231 37 -262 41 -282 29z"/>
<path d="M8590 13265 c-63 -7 -180 -26 -260 -43 -118 -25 -271 -56 -477 -98
-32 -6 -29 -36 6 -88 38 -55 160 -169 175 -162 6 2 81 36 166 74 85 39 256
104 380 145 134 45 229 83 237 93 18 25 16 58 -5 77 -22 20 -57 20 -222 2z"/>
<path d="M9744 13083 c-18 -55 -31 -80 -65 -123 -64 -81 -185 -158 -284 -180
-82 -19 -214 -14 -279 11 -74 27 -165 103 -228 190 -28 38 -57 69 -64 69 -7 0
-31 -6 -51 -14 -21 -7 -76 -26 -123 -40 -360 -111 -502 -167 -508 -200 -5 -22
26 -55 108 -116 85 -63 146 -98 312 -181 383 -192 734 -283 1138 -296 441 -13
761 42 1146 198 191 77 594 314 594 349 0 6 -28 31 -63 56 -94 69 -293 149
-527 214 -41 12 -83 23 -92 26 -12 4 -22 -5 -37 -33 -31 -59 -103 -145 -149
-177 -94 -65 -264 -100 -371 -77 -29 6 -100 35 -159 63 -128 62 -229 153 -254
227 -16 49 -35 63 -44 34z"/>
<path d="M7897 12685 c-145 -141 -386 -508 -538 -822 -250 -513 -420 -1055
-493 -1573 -77 -553 -86 -1148 -27 -1750 32 -314 51 -500 77 -720 7 -69 19
-168 24 -220 18 -158 40 -341 50 -415 5 -38 12 -99 15 -135 3 -36 10 -99 15
-140 5 -41 16 -136 25 -210 17 -152 30 -264 45 -394 6 -48 15 -131 20 -185 5
-53 16 -163 25 -246 73 -708 103 -1034 131 -1420 14 -202 21 -305 43 -645 17
-272 24 -576 12 -598 -7 -14 -25 -21 -61 -26 -69 -9 -171 -47 -221 -82 -141
-97 -210 -295 -174 -496 18 -104 54 -190 98 -236 62 -65 67 -66 342 -69 148
-2 271 2 303 8 41 8 67 7 122 -5 145 -33 228 -14 317 73 104 100 101 77 113
1138 6 494 14 1058 20 1253 5 195 14 558 19 805 6 248 16 585 22 750 11 273
11 311 -5 425 -48 335 -205 930 -353 1335 -35 97 -72 191 -216 555 -69 173
-139 356 -156 405 -16 50 -42 124 -57 165 -23 67 -77 243 -104 340 -21 76 -54
246 -76 395 -23 152 -23 569 0 745 52 390 131 694 271 1050 43 108 216 463
302 620 88 158 136 270 137 315 1 53 -20 56 -67 10z"/>
<path d="M11425 12549 c-11 -17 4 -114 45 -284 60 -251 69 -293 84 -405 62
-439 45 -828 -55 -1260 -44 -191 -120 -451 -159 -545 -4 -11 -26 -65 -48 -120
-77 -192 -231 -516 -317 -665 -20 -36 -56 -99 -78 -140 -22 -41 -99 -176 -169
-300 -170 -295 -411 -779 -490 -980 -16 -41 -47 -118 -68 -170 -132 -328 -205
-561 -265 -850 -54 -257 -67 -389 -90 -905 -4 -71 -13 -229 -21 -350 -8 -121
-19 -287 -24 -370 -11 -179 -26 -371 -45 -595 -8 -91 -19 -232 -25 -315 -6
-82 -17 -229 -25 -325 -7 -96 -19 -249 -25 -340 -22 -318 -37 -441 -54 -452
-6 -4 -38 -8 -71 -8 -77 -1 -170 -21 -231 -50 -74 -36 -177 -144 -204 -216
-32 -85 -43 -167 -36 -266 9 -141 59 -242 153 -314 54 -41 118 -50 213 -28 59
13 85 14 152 5 104 -14 190 -14 262 1 47 9 77 8 171 -7 62 -10 129 -15 147
-11 88 16 184 119 214 227 8 30 19 115 24 189 17 254 55 673 65 720 6 28 20
157 35 305 19 187 54 472 71 570 9 57 32 195 64 400 8 50 19 113 24 140 5 28
25 147 45 265 20 118 40 240 46 270 5 30 17 96 26 145 104 585 196 987 355
1560 117 422 152 532 364 1170 133 399 187 568 208 650 2 11 14 54 25 95 81
301 118 549 131 882 8 191 19 268 36 268 33 0 226 -249 335 -430 183 -304 301
-647 332 -964 12 -125 5 -432 -11 -492 -5 -21 -19 -80 -30 -130 -30 -134 -85
-282 -158 -429 -35 -71 -69 -135 -75 -142 -17 -21 -1 -31 90 -58 378 -113 715
-326 919 -580 138 -173 238 -381 287 -598 35 -154 38 -456 5 -616 -90 -451
-364 -944 -723 -1302 -134 -134 -191 -185 -333 -296 -110 -86 -348 -248 -438
-298 -436 -242 -866 -379 -1343 -430 -79 -8 -147 -17 -152 -20 -9 -6 -12 -31
-30 -235 -6 -69 -17 -192 -25 -275 -8 -82 -16 -206 -17 -275 l-3 -125 170 2
c94 1 276 6 405 12 129 6 334 16 455 21 121 6 290 15 375 20 527 33 662 41
905 55 300 16 319 18 366 42 49 24 73 55 136 173 30 58 95 175 143 260 96 169
253 473 345 670 363 775 449 1027 559 1640 71 390 101 714 100 1075 -2 365
-26 622 -96 1020 -10 61 -23 133 -28 161 -16 93 -118 496 -166 653 -42 140
-130 403 -152 456 -11 28 -46 115 -78 194 -156 397 -449 956 -697 1331 -125
190 -380 541 -464 640 -12 14 -81 97 -154 185 -206 249 -344 400 -611 667
-331 331 -321 318 -403 533 -84 220 -169 345 -200 294z"/>
<path d="M15175 6721 c-74 -9 -183 -62 -237 -114 -81 -78 -122 -228 -100 -358
12 -72 52 -171 93 -231 13 -20 62 -77 109 -128 47 -51 99 -112 116 -135 71
-100 124 -262 124 -378 0 -290 -208 -685 -509 -969 -115 -108 -303 -247 -432
-319 -52 -28 -127 -70 -168 -93 -73 -40 -75 -43 -111 -121 -21 -44 -54 -120
-75 -169 -32 -79 -130 -277 -393 -798 -47 -92 -72 -153 -68 -164 5 -14 15 -15
64 -9 31 4 82 13 112 20 30 8 123 30 205 50 348 84 550 157 856 310 304 151
502 282 729 482 285 252 553 626 692 968 112 274 151 475 151 775 1 212 -10
294 -62 470 -108 363 -339 658 -653 834 -116 65 -295 96 -443 77z"/>
<path d="M8283 4279 c-14 -14 -17 -105 -6 -238 l6 -84 144 -145 c79 -80 142
-151 140 -156 -2 -6 -49 -18 -104 -28 -105 -17 -156 -36 -167 -63 -3 -9 -6
-187 -6 -395 0 -339 2 -379 17 -391 13 -11 71 -14 288 -13 171 1 278 5 291 12
13 7 25 30 33 64 7 29 31 91 53 137 32 66 56 100 112 155 40 39 98 89 129 111
31 22 56 47 57 55 0 21 -64 81 -196 183 -188 145 -385 331 -501 474 -72 89
-212 257 -250 301 -22 27 -30 31 -40 21z"/>
<path d="M6725 3593 c-22 -2 -69 -11 -105 -19 -162 -40 -261 -115 -324 -247
-45 -93 -60 -175 -52 -287 16 -240 122 -341 358 -341 109 -1 113 2 127 113 15
112 35 177 73 240 60 98 195 190 316 218 43 10 55 18 64 39 13 35 1 242 -16
259 -22 22 -296 38 -441 25z"/>
</g>
</svg>
