<?xml version="1.0" standalone="no"?>
<!DOCTYPE svg PUBLIC "-//W3C//DTD SVG 20010904//EN"
 "http://www.w3.org/TR/2001/REC-SVG-20010904/DTD/svg10.dtd">
<svg version="1.0" xmlns="http://www.w3.org/2000/svg"
 width="384.466301pt" height="428.783243pt" viewBox="0 0 384.466301 428.783243"
 preserveAspectRatio="xMidYMid meet">

<g transform="translate(-63.302988,471.821019) scale(0.100000,-0.100000)"
fill="#000000" stroke="none">
<path d="M2220 4711 c-34 -9 -37 -42 -7 -99 l25 -48 -56 -29 c-32 -17 -102
-73 -159 -127 -112 -106 -185 -154 -250 -164 -41 -6 -47 -3 -125 56 -158 119
-275 157 -457 147 -53 -3 -130 -15 -171 -26 -41 -12 -134 -34 -207 -49 -139
-30 -167 -44 -178 -91 -14 -63 40 -200 136 -346 104 -158 333 -360 455 -402
100 -34 287 4 416 86 l46 29 25 -26 c46 -50 47 -59 36 -218 -14 -196 -7 -298
32 -454 l32 -128 -76 -82 c-177 -191 -300 -434 -342 -678 -19 -110 -19 -316 0
-428 40 -226 156 -455 313 -617 72 -74 192 -171 244 -198 l39 -20 48 30 c26
17 70 36 99 42 50 12 53 11 127 -25 57 -28 86 -50 116 -88 46 -58 125 -216
135 -268 4 -19 11 -41 17 -47 12 -17 62 -17 74 0 5 6 27 60 47 119 37 105 37
107 21 142 -10 20 -52 69 -94 109 -85 79 -212 153 -316 183 -77 22 -214 22
-274 0 -43 -16 -45 -16 -80 7 -178 118 -353 392 -387 605 -6 38 -4 45 30 82
42 46 55 76 96 213 41 138 74 202 118 232 51 35 66 32 96 -20 15 -25 31 -45
35 -45 5 0 11 -42 14 -92 15 -277 221 -533 438 -546 89 -6 122 12 209 109 79
87 113 104 192 97 65 -7 125 7 165 37 42 33 81 115 90 194 l8 64 73 37 c92 47
125 79 164 157 30 61 30 66 26 167 l-5 105 62 -24 c34 -12 92 -44 129 -69 37
-25 73 -46 80 -46 15 0 59 -155 77 -270 22 -144 1 -338 -56 -505 -62 -182
-207 -378 -367 -497 -38 -28 -71 -60 -74 -72 -10 -43 -22 -131 -18 -136 14
-14 198 127 292 224 268 278 396 668 338 1027 -46 283 -167 520 -369 723 l-69
68 26 92 c52 190 61 297 43 548 l-9 116 34 37 34 37 64 -35 c145 -80 304 -114
402 -87 95 27 304 205 416 355 63 84 147 250 163 321 9 41 9 56 -2 79 -23 46
-57 63 -179 89 -63 14 -164 36 -225 50 -132 31 -225 33 -327 7 -93 -24 -156
-55 -242 -120 -113 -86 -121 -87 -226 -35 -52 26 -101 64 -175 134 -103 98
-201 160 -253 160 -27 0 -27 13 -1 78 18 43 2 55 -66 47 -67 -8 -126 -38 -168
-85 l-35 -38 -37 38 c-79 81 -222 127 -315 101z m703 -340 c41 -11 93 -29 115
-40 35 -18 43 -28 61 -83 32 -102 63 -210 59 -213 -2 -1 -29 -10 -60 -19 -41
-12 -72 -30 -110 -65 -62 -57 -97 -116 -130 -221 -21 -67 -23 -94 -22 -250 0
-188 15 -303 61 -460 36 -126 63 -177 133 -254 70 -78 100 -135 130 -251 26
-100 36 -255 21 -311 -14 -53 -79 -126 -136 -154 -34 -16 -61 -21 -108 -20
-91 2 -659 1 -747 -2 -67 -2 -81 1 -130 27 -101 55 -150 158 -136 285 10 83
61 271 90 328 14 28 49 77 79 109 67 74 79 92 111 182 71 197 107 540 73 703
-22 102 -65 195 -118 254 -48 51 -145 104 -193 104 -23 0 -27 3 -21 18 4 9 18
53 32 97 39 125 64 185 82 194 24 13 199 56 205 51 2 -3 -2 -32 -10 -65 -19
-83 -19 -145 1 -145 41 0 121 69 147 126 6 13 14 24 17 24 8 0 121 -225 121
-241 0 -8 5 -21 10 -29 7 -12 13 -11 34 9 29 28 40 57 60 164 22 114 26 117
70 69 49 -52 121 -91 138 -74 17 17 13 102 -6 140 -19 38 -21 37 77 13z m-932
-704 c38 -26 64 -84 55 -122 -16 -61 -94 -102 -162 -84 -45 13 -74 59 -74 118
0 36 6 49 34 77 42 42 95 46 147 11z m1259 8 c87 -45 76 -172 -17 -211 -71
-30 -163 28 -163 102 0 96 94 153 180 109z"/>
<path d="M2154 2612 c-44 -29 -40 -99 9 -158 18 -21 45 -56 60 -76 15 -21 37
-43 48 -49 70 -37 125 67 83 156 -17 36 -50 64 -126 108 -50 29 -57 31 -74 19z"/>
<path d="M2874 2585 c-32 -20 -69 -47 -81 -60 -51 -58 -52 -166 -1 -194 39
-22 67 -5 142 91 54 69 66 90 66 121 0 38 -27 77 -53 77 -7 0 -40 -16 -73 -35z"/>
</g>
</svg>
