<?xml version="1.0" standalone="no"?>
<!DOCTYPE svg PUBLIC "-//W3C//DTD SVG 20010904//EN"
 "http://www.w3.org/TR/2001/REC-SVG-20010904/DTD/svg10.dtd">
<svg version="1.0" xmlns="http://www.w3.org/2000/svg"
 width="1339.371937pt" height="1060.085098pt" viewBox="0 0 1339.371937 1060.085098"
 preserveAspectRatio="xMidYMid meet">

<g transform="translate(-330.002250,1545.398684) scale(0.100000,-0.100000)"
fill="#000000" stroke="none">
<path d="M12640 15453 c-301 -22 -424 -46 -489 -94 -25 -18 -31 -30 -31 -61 0
-48 12 -54 127 -61 90 -6 126 -14 288 -64 314 -98 624 -266 896 -485 222 -179
302 -284 316 -414 5 -46 3 -52 -22 -72 -21 -17 -41 -22 -85 -22 -97 0 -199 55
-495 265 -352 250 -723 494 -842 555 -93 48 -136 60 -148 41 -10 -17 44 -181
90 -275 185 -379 430 -705 830 -1102 289 -287 500 -447 920 -701 258 -156 457
-244 605 -268 57 -9 90 -30 90 -56 0 -31 -75 -153 -155 -254 -40 -49 -82 -108
-93 -131 -25 -49 -58 -224 -67 -349 -3 -49 -12 -110 -20 -135 -16 -51 -41
-155 -60 -250 -7 -36 -18 -76 -23 -90 -5 -14 -12 -47 -16 -73 -4 -26 -14 -63
-22 -82 -13 -31 -11 -65 4 -65 4 0 29 8 57 19 27 10 82 29 120 41 310 99 828
524 1057 866 98 147 207 363 232 464 4 14 13 49 21 78 25 93 36 276 25 423
-20 257 -100 509 -240 754 -13 22 -28 49 -34 60 -13 23 -89 135 -142 210 -95
134 -321 372 -484 509 -280 236 -597 430 -935 571 -185 77 -504 173 -635 190
-30 4 -65 11 -78 16 -47 18 -464 49 -562 42z"/>
<path d="M7105 15443 c-380 -24 -669 -87 -1000 -218 -445 -176 -813 -421
-1170 -779 -225 -226 -371 -418 -482 -637 -58 -115 -63 -127 -112 -270 -138
-404 -137 -729 2 -1069 97 -235 202 -393 401 -599 252 -260 397 -377 646 -517
222 -125 326 -165 345 -134 6 10 -39 151 -55 175 -4 6 -17 39 -28 75 -29 88
-38 202 -22 283 22 116 -15 327 -81 458 -15 31 -73 124 -128 206 -97 145 -121
188 -121 218 0 18 39 39 110 58 121 34 292 101 425 166 117 58 396 233 570
357 216 154 489 409 766 714 210 232 518 721 613 973 32 85 44 175 24 182 -13
5 -86 -33 -188 -100 -19 -12 -63 -40 -98 -61 -35 -22 -107 -72 -160 -111 -409
-306 -740 -533 -890 -610 -95 -49 -147 -55 -200 -23 -49 30 -60 61 -39 118 63
169 314 425 602 614 80 52 302 168 322 168 4 0 42 14 83 31 172 70 327 112
475 129 129 15 159 33 139 85 -10 24 -88 60 -184 83 -121 30 -387 47 -565 35z"/>
<path d="M8480 13465 c-136 -38 -220 -107 -280 -230 -33 -67 -34 -75 -34 -180
0 -100 3 -115 28 -165 41 -83 52 -100 86 -137 63 -66 27 -84 -315 -158 -225
-49 -371 -85 -620 -155 -38 -11 -104 -29 -145 -40 -41 -12 -93 -27 -115 -35
-22 -7 -107 -34 -190 -60 -147 -46 -185 -59 -275 -95 -25 -11 -74 -30 -110
-44 -63 -24 -132 -53 -197 -82 -17 -8 -34 -14 -38 -14 -27 0 -258 -127 -299
-164 l-49 -45 7 -52 c7 -54 60 -198 103 -284 228 -450 494 -808 902 -1215 383
-382 749 -666 1146 -892 135 -77 533 -278 550 -278 4 0 21 -6 38 -14 59 -27
112 -48 222 -88 103 -37 140 -49 305 -98 86 -26 275 -64 430 -87 177 -26 593
-26 770 0 236 35 511 103 695 172 39 14 84 30 100 35 17 5 39 14 50 19 11 5
58 26 105 46 305 130 754 403 1060 644 327 257 477 392 725 656 257 272 493
576 615 790 10 17 27 48 40 70 57 100 76 135 141 263 74 146 109 230 109 263
0 32 -91 120 -177 171 -104 61 -268 139 -408 192 -38 15 -79 31 -90 36 -25 11
-216 77 -275 95 -25 8 -74 23 -110 34 -385 119 -874 247 -1055 277 -119 19
-235 68 -235 98 0 5 17 29 38 55 96 115 132 195 132 289 0 154 -94 303 -240
382 -64 35 -66 35 -190 35 -110 0 -133 -3 -188 -25 -124 -49 -231 -153 -274
-264 -19 -49 -24 -87 -28 -196 l-5 -135 -110 2 c-60 1 -137 6 -170 12 -33 6
-224 16 -424 23 -363 12 -792 2 -926 -21 -28 -5 -84 -11 -125 -13 l-75 -3 -6
125 c-4 96 -11 137 -28 179 -56 137 -158 242 -283 292 -71 28 -230 35 -308 14z
m188 -701 c4 -28 -23 -54 -54 -54 -32 0 -33 42 -1 65 28 20 51 15 55 -11z
m2770 -16 c3 -14 -3 -18 -27 -18 -31 0 -47 13 -36 31 11 16 59 6 63 -13z"/>
<path d="M4675 11009 c-66 -4 -178 -17 -250 -29 -71 -11 -158 -25 -191 -30
-81 -12 -105 -22 -184 -75 -165 -110 -409 -404 -524 -633 -182 -362 -256 -749
-215 -1134 19 -183 91 -391 155 -449 36 -33 100 -57 114 -43 5 5 11 116 14
254 4 221 7 254 29 340 55 210 98 283 281 480 126 136 153 166 192 215 68 85
110 156 158 270 60 140 59 139 83 143 10 2 89 -31 174 -72 85 -41 181 -84 214
-95 295 -105 798 -174 1355 -186 151 -3 329 -10 395 -15 204 -16 238 -16 243
-2 2 7 -61 79 -140 160 -201 205 -356 389 -516 608 -152 208 -206 274 -225
278 -102 21 -908 32 -1162 15z"/>
<path d="M14475 11014 c-27 -2 -104 -11 -170 -19 -67 -8 -137 -15 -158 -15
-46 0 -84 -32 -152 -130 -72 -102 -262 -354 -345 -457 -85 -104 -349 -393
-359 -393 -9 0 -34 -51 -27 -57 4 -4 184 2 781 27 753 32 1086 100 1504 305
52 26 56 26 68 9 7 -10 13 -21 13 -25 0 -15 74 -134 125 -204 29 -38 125 -146
215 -240 238 -250 326 -361 367 -465 54 -136 80 -309 84 -570 2 -69 6 -133 11
-142 11 -23 56 -23 86 -2 58 40 136 232 156 384 53 393 -3 781 -159 1100 -154
313 -438 645 -660 771 -118 67 -161 80 -297 90 -70 5 -149 14 -175 20 -47 10
-807 21 -908 13z"/>
<path d="M6685 9870 c-38 -10 -133 -24 -210 -30 -77 -6 -178 -15 -225 -20 -47
-4 -141 -11 -210 -15 -69 -4 -154 -11 -190 -16 -35 -6 -116 -16 -180 -24 -129
-16 -249 -36 -360 -61 -115 -25 -281 -64 -320 -74 -19 -5 -87 -16 -150 -25
-63 -8 -135 -22 -160 -31 -204 -71 -456 -265 -642 -492 -170 -207 -256 -382
-376 -762 -86 -269 -63 -534 83 -985 24 -74 90 -245 105 -273 5 -9 30 -62 56
-117 56 -120 160 -295 229 -387 128 -170 308 -338 428 -399 72 -37 154 -50
163 -26 6 18 -3 35 -115 207 -246 377 -323 680 -351 1379 -12 302 -12 301 64
320 25 6 52 11 62 11 23 0 134 81 215 157 77 73 215 252 276 358 22 39 62 121
89 184 27 62 58 119 69 127 18 12 29 11 80 -5 33 -10 87 -31 120 -46 183 -84
524 -145 805 -145 301 0 541 50 825 172 89 38 302 143 318 156 7 6 64 31 127
57 63 25 124 50 135 55 11 5 60 22 109 38 50 16 91 33 93 39 2 6 -12 20 -32
32 -20 11 -60 39 -88 61 -245 191 -391 310 -500 409 -236 214 -216 204 -342
171z"/>
<path d="M13115 9854 c-16 -15 -78 -72 -136 -126 -120 -112 -282 -244 -474
-388 -72 -54 -138 -107 -149 -118 -18 -20 -15 -42 6 -42 10 0 27 -7 130 -54
31 -14 59 -26 62 -26 3 0 54 -23 113 -51 116 -55 211 -99 283 -131 25 -11 59
-26 75 -33 239 -107 381 -155 545 -183 160 -28 311 -35 475 -23 334 26 560 79
809 190 37 17 72 31 77 31 4 0 43 -71 85 -157 43 -87 96 -187 119 -223 85
-133 310 -388 394 -446 13 -9 54 -25 92 -35 37 -10 78 -23 90 -30 l22 -11 -6
-302 c-3 -165 -11 -353 -17 -416 -17 -179 -60 -383 -105 -500 -8 -19 -17 -46
-21 -60 -9 -36 -110 -235 -153 -303 -20 -32 -69 -103 -109 -159 -40 -56 -71
-109 -69 -117 5 -25 98 -17 164 14 117 53 271 183 401 339 180 214 330 511
435 856 99 328 112 397 112 595 -1 178 -4 193 -85 435 -26 80 -53 165 -60 190
-26 102 -104 269 -173 370 -165 243 -421 474 -654 589 -74 36 -113 47 -368
101 -55 11 -138 29 -185 40 -289 63 -416 87 -530 100 -52 6 -122 15 -155 19
-33 5 -105 12 -160 16 -55 3 -176 12 -270 20 -93 8 -231 17 -305 20 -74 4
-153 11 -175 17 -83 21 -98 20 -130 -8z"/>
<path d="M7677 9164 c-4 -4 -7 -17 -7 -30 0 -24 -54 -64 -215 -158 -246 -144
-426 -260 -509 -328 -87 -71 -340 -331 -366 -377 -39 -68 -76 -101 -113 -101
-79 0 -208 -104 -262 -210 -73 -145 -102 -274 -116 -527 -16 -289 6 -595 51
-700 13 -31 57 -30 100 2 19 14 42 25 52 25 10 0 46 14 80 31 59 29 114 48
248 85 80 22 135 58 179 117 138 184 185 388 130 558 -30 90 -69 189 -87 220
-18 33 -9 64 16 54 43 -17 210 -45 266 -45 73 0 245 30 348 61 139 41 333 145
571 306 239 162 334 237 465 370 95 98 103 123 50 164 -80 59 -93 67 -278 167
-36 20 -104 61 -152 91 -213 137 -289 180 -361 207 -60 22 -81 26 -90 18z"/>
<path d="M12140 9104 c-71 -39 -127 -72 -270 -159 -52 -32 -108 -66 -125 -75
-382 -221 -375 -216 -375 -252 0 -43 258 -261 485 -410 235 -154 500 -300 656
-362 186 -74 365 -87 520 -40 107 33 135 38 142 27 9 -15 -11 -92 -49 -185
-81 -198 -85 -333 -17 -513 44 -116 85 -172 146 -200 28 -14 59 -25 67 -25 8
0 53 -14 100 -31 47 -17 101 -35 120 -41 19 -5 46 -16 60 -23 14 -8 54 -27 90
-44 36 -17 78 -39 93 -49 28 -17 29 -17 51 10 58 66 89 261 89 558 -1 324 -29
486 -112 636 -59 105 -115 162 -217 218 -77 43 -112 73 -269 231 -99 100 -211
206 -250 237 -77 60 -213 156 -260 182 -16 9 -43 25 -60 36 -16 11 -41 25 -55
32 -14 7 -40 23 -58 35 -18 12 -52 31 -75 43 -23 12 -73 41 -112 65 -38 24
-93 57 -121 74 -29 17 -57 38 -64 46 -20 24 -60 17 -130 -21z"/>
<path d="M13085 6803 c-32 -8 -107 -54 -149 -92 -162 -142 -335 -446 -414
-726 -11 -38 -29 -104 -41 -145 -12 -41 -21 -87 -21 -101 0 -33 -16 -52 -105
-121 -74 -59 -261 -188 -271 -188 -3 0 -18 -8 -32 -19 -30 -21 -191 -102 -297
-151 -38 -17 -83 -38 -100 -45 -52 -25 -234 -100 -400 -166 -88 -35 -178 -73
-200 -84 -42 -21 -56 -53 -33 -73 8 -6 72 -16 143 -23 203 -18 504 15 755 84
159 44 294 87 380 122 36 14 106 41 155 59 351 129 644 361 906 716 97 132
104 143 186 285 85 148 133 245 178 360 16 39 37 82 47 97 11 16 18 40 16 55
-2 24 -9 29 -43 37 -22 5 -126 31 -232 58 -246 63 -355 79 -428 61z"/>
<path d="M6790 6794 c-25 -2 -67 -11 -95 -19 -110 -32 -402 -85 -471 -85 -43
0 -54 -22 -30 -59 16 -24 46 -85 83 -171 160 -364 474 -800 718 -999 169 -138
304 -212 660 -366 94 -40 358 -125 480 -154 170 -40 234 -52 355 -65 237 -27
300 -29 400 -12 122 21 130 24 130 45 0 36 -52 64 -235 126 -143 48 -214 75
-380 145 -67 28 -239 107 -353 162 -45 22 -115 61 -155 87 -118 77 -341 250
-353 274 -6 12 -19 56 -29 97 -24 102 -96 316 -143 425 -81 185 -175 335 -278
445 -95 101 -177 134 -304 124z"/>
</g>
</svg>
