<?xml version="1.0" standalone="no"?>
<!DOCTYPE svg PUBLIC "-//W3C//DTD SVG 20010904//EN"
 "http://www.w3.org/TR/2001/REC-SVG-20010904/DTD/svg10.dtd">
<svg version="1.0" xmlns="http://www.w3.org/2000/svg"
 width="1346.852861pt" height="1049.070081pt" viewBox="0 0 1346.852861 1049.070081"
 preserveAspectRatio="xMidYMid meet">

<g transform="translate(-319.015323,1529.570081) scale(0.100000,-0.100000)"
fill="#000000" stroke="none">
<path d="M11705 15294 c-204 -17 -470 -80 -635 -151 -19 -8 -44 -19 -55 -23
-168 -67 -395 -201 -575 -338 -101 -77 -298 -273 -393 -392 -76 -95 -205 -297
-280 -437 -124 -236 -218 -508 -271 -788 -37 -196 -49 -358 -43 -587 8 -329
43 -548 123 -781 79 -226 115 -306 320 -707 133 -260 158 -347 158 -550 -1
-94 -6 -158 -18 -210 -23 -95 -89 -232 -128 -265 -28 -24 -36 -26 -102 -20
-70 5 -244 28 -361 46 -33 5 -165 14 -293 21 -348 18 -741 -9 -992 -68 -36 -8
-96 -22 -135 -31 -38 -9 -90 -21 -115 -28 -25 -7 -63 -17 -85 -23 -124 -33
-418 -133 -535 -182 -221 -93 -256 -109 -475 -221 -707 -358 -747 -377 -940
-436 -168 -51 -229 -57 -545 -58 -330 0 -392 6 -640 66 -55 14 -244 76 -285
94 -322 144 -435 212 -622 377 -51 46 -112 93 -135 106 -55 30 -124 30 -168 0
-65 -44 -63 -115 10 -273 150 -327 354 -727 434 -850 85 -131 97 -153 87 -159
-14 -9 -225 62 -328 110 -18 8 -69 28 -115 45 -236 86 -271 93 -325 59 -34
-20 -53 -67 -53 -130 0 -40 34 -119 81 -186 17 -26 105 -193 195 -373 238
-474 309 -601 509 -906 457 -698 874 -1157 1488 -1638 84 -66 106 -96 70 -98
-10 0 -358 0 -773 1 -827 1 -795 4 -853 -58 -23 -24 -30 -42 -34 -88 -7 -74
12 -121 63 -160 l37 -29 948 -3 948 -2 38 -48 c52 -65 93 -101 123 -110 14 -4
1614 -7 3556 -7 l3530 0 42 28 c23 15 56 46 72 70 16 23 34 48 40 54 9 10 210
13 943 13 900 0 933 1 963 19 57 35 84 81 84 143 0 65 -26 111 -80 142 -34 20
-54 21 -635 27 -330 4 -646 7 -702 8 -113 1 -124 8 -77 52 63 58 235 274 310
389 268 411 389 737 466 1255 17 119 17 518 0 650 -74 547 -260 1046 -549
1474 -177 261 -329 438 -585 682 -441 420 -510 495 -615 664 -74 118 -104 188
-149 340 -24 84 -24 306 1 390 71 241 229 418 475 533 77 35 270 96 465 147
77 19 163 47 191 60 61 30 83 31 128 6 98 -55 493 -196 696 -247 401 -103 766
-136 1070 -98 445 55 759 176 917 353 48 53 67 98 71 173 9 147 -86 253 -289
322 -25 9 -127 36 -225 61 -244 62 -327 87 -539 163 -189 68 -306 117 -475
201 -355 176 -569 330 -841 607 -157 160 -217 246 -305 439 -145 319 -271 504
-488 720 -231 230 -450 375 -753 499 -142 58 -254 90 -443 127 -81 16 -156 21
-325 24 -121 1 -242 1 -270 -1z m505 -340 c153 -22 257 -53 450 -130 84 -34
239 -113 320 -163 218 -135 390 -310 564 -569 116 -174 250 -467 290 -632 21
-88 46 -238 46 -276 0 -89 -82 -228 -192 -326 -100 -88 -129 -109 -231 -162
-186 -97 -239 -147 -224 -208 12 -48 71 -120 164 -199 78 -68 92 -84 81 -95
-7 -7 -56 -24 -109 -38 -711 -189 -1067 -563 -1071 -1126 -1 -224 45 -416 153
-630 95 -188 294 -417 619 -711 588 -534 941 -1093 1094 -1729 97 -407 99
-833 4 -1215 -47 -194 -169 -513 -243 -640 -12 -22 -35 -62 -50 -90 -50 -90
-162 -239 -229 -305 l-66 -64 -27 26 c-16 16 -49 32 -78 38 -36 8 -1099 12
-3864 15 -4154 4 -3849 8 -3887 -50 -9 -14 -24 -25 -34 -25 -51 0 -523 430
-759 690 -226 250 -279 313 -422 505 -196 261 -282 393 -434 665 -125 224
-329 640 -318 651 5 5 74 -13 153 -40 80 -27 179 -59 220 -71 41 -12 145 -45
230 -72 183 -59 213 -59 269 -4 32 32 36 42 35 84 -1 61 -17 91 -134 247 -162
218 -450 682 -433 699 3 3 22 -5 42 -18 20 -13 88 -42 151 -65 176 -65 158
-60 355 -110 266 -69 411 -86 700 -85 373 2 593 48 900 189 33 15 96 43 140
62 44 19 168 80 275 135 522 270 626 320 840 400 207 78 453 151 630 186 318
64 461 81 775 89 260 7 529 -14 838 -64 269 -43 386 22 519 290 91 182 142
462 119 650 -27 226 -81 380 -227 647 -64 118 -157 302 -192 380 -133 298
-208 754 -182 1108 59 802 453 1493 1070 1874 247 152 441 222 795 287 87 15
450 13 565 -5z m2000 -1750 c132 -118 465 -358 695 -502 207 -129 481 -246
745 -317 36 -10 85 -23 110 -30 25 -7 65 -18 90 -24 323 -76 348 -85 317 -119
-48 -52 -474 -122 -742 -122 -307 1 -677 61 -1005 165 -47 14 -128 39 -180 55
-52 16 -126 41 -165 55 -38 15 -92 35 -120 45 -125 47 -190 78 -193 92 -2 10
35 45 100 95 178 138 269 251 281 350 7 59 -7 218 -22 256 -13 32 -15 77 -3
77 4 0 45 -35 92 -76z m-495 -794 c36 -10 81 -26 140 -51 156 -65 553 -199
592 -199 7 0 21 -4 31 -10 21 -11 178 -55 247 -68 368 -72 416 -77 725 -77
218 0 295 4 371 18 219 40 319 66 447 114 97 37 125 36 104 -4 -10 -19 -155
-103 -177 -103 -6 0 -15 -4 -21 -10 -11 -11 -219 -63 -319 -79 -355 -58 -758
-35 -1195 70 -229 56 -723 214 -900 290 -66 28 -170 88 -170 99 0 22 57 27
125 10z m-620 -7030 c9 -15 -98 -152 -157 -202 l-52 -43 -3297 0 -3298 0 -41
40 c-79 75 -157 186 -145 205 9 14 6982 14 6990 0z"/>
<path d="M12282 14270 c-95 -20 -186 -91 -233 -182 -19 -35 -23 -60 -23 -138
-1 -83 3 -102 26 -152 75 -161 234 -246 396 -212 83 17 137 49 201 120 75 82
96 131 96 229 -1 97 -25 155 -98 228 -88 89 -239 134 -365 107z m178 -210 c38
-27 53 -70 48 -130 -6 -58 -37 -100 -75 -100 -38 0 -103 47 -120 87 -43 104
61 205 147 143z"/>
<path d="M10893 9430 c-61 -19 -102 -103 -82 -173 10 -38 52 -98 127 -182 53
-59 158 -217 200 -300 16 -33 43 -96 58 -140 27 -76 29 -89 29 -245 0 -214
-29 -327 -133 -524 -121 -226 -262 -399 -474 -581 -177 -152 -288 -225 -493
-328 -567 -282 -1307 -362 -2000 -217 -80 17 -153 37 -295 83 -147 47 -388
156 -520 237 -25 15 -87 51 -137 81 -126 73 -122 97 16 83 81 -8 414 11 556
32 278 40 582 132 835 252 89 43 262 151 303 190 87 83 89 198 4 250 -68 43
-157 21 -288 -68 -145 -99 -447 -217 -679 -266 -312 -66 -741 -71 -1080 -14
-112 19 -341 84 -425 120 -22 9 -65 28 -95 41 -195 85 -368 189 -553 334 -112
87 -132 108 -122 125 3 4 110 8 239 8 303 1 565 35 811 104 39 11 84 23 100
28 62 16 248 81 283 99 104 54 152 111 152 181 0 69 -59 125 -143 136 -35 5
-65 -1 -148 -31 -169 -60 -348 -106 -524 -134 -197 -32 -275 -35 -717 -36
l-457 -1 -43 -30 c-91 -64 -112 -141 -61 -231 91 -164 396 -459 653 -630 95
-64 328 -194 434 -243 97 -45 209 -84 291 -103 l60 -14 -3 -46 c-4 -59 8 -76
121 -175 213 -184 303 -248 502 -356 241 -130 537 -252 744 -306 358 -95 811
-131 1176 -95 225 22 261 28 500 86 681 163 1304 574 1643 1084 237 355 342
743 286 1058 -53 305 -279 711 -465 834 -43 28 -132 39 -186 23z"/>
<path d="M14275 13010 c-3 -5 -1 -27 4 -47 5 -21 13 -66 17 -100 8 -73 21 -89
90 -103 27 -5 78 -17 114 -25 128 -31 190 -39 203 -26 9 9 5 17 -18 36 -86 72
-380 275 -398 275 -3 0 -9 -4 -12 -10z"/>
</g>
</svg>
