<?xml version="1.0" standalone="no"?>
<!DOCTYPE svg PUBLIC "-//W3C//DTD SVG 20010904//EN"
 "http://www.w3.org/TR/2001/REC-SVG-20010904/DTD/svg10.dtd">
<svg version="1.0" xmlns="http://www.w3.org/2000/svg"
 width="441.856673pt" height="536.860576pt" viewBox="0 0 441.856673 536.860576"
 preserveAspectRatio="xMidYMid meet">
<metadata>
Created by potrace 1.16, written by Peter Selinger 2001-2019
</metadata>
<g transform="translate(-158.897364,654.000000) scale(0.100000,-0.100000)"
fill="#000000" stroke="none">
<path d="M4110 6499 c-97 -77 -261 -242 -304 -308 -25 -37 -69 -122 -100 -190
-67 -151 -109 -216 -195 -302 -103 -102 -228 -180 -345 -214 l-58 -17 -36 31
c-153 131 -266 198 -428 254 -118 41 -314 87 -371 87 -65 0 -69 -13 -37 -132
43 -162 43 -156 -2 -163 -104 -16 -158 -31 -259 -72 -212 -87 -232 -93 -304
-93 -93 0 -103 -14 -48 -67 127 -123 342 -205 544 -207 118 -1 113 4 89 -98
-26 -106 -6 -120 134 -94 297 54 565 210 700 407 34 49 45 58 86 68 105 27
272 127 399 241 44 39 81 67 83 61 2 -6 -1 -42 -7 -80 -6 -39 -11 -96 -11
-129 l0 -59 -71 -28 c-166 -65 -283 -261 -266 -445 3 -30 8 -63 12 -72 5 -13
-5 -22 -49 -43 -160 -76 -254 -248 -244 -448 l3 -70 -64 -33 c-114 -58 -197
-163 -226 -285 -20 -85 -19 -114 5 -192 19 -61 46 -106 114 -191 l29 -36 -33
-65 c-44 -87 -51 -175 -22 -272 21 -67 61 -141 96 -176 17 -17 16 -19 -19 -59
-21 -22 -51 -70 -68 -107 -43 -92 -50 -217 -16 -306 42 -113 195 -235 294
-235 22 0 24 -3 17 -32 -4 -18 -7 -78 -7 -133 0 -90 3 -105 29 -154 42 -82
124 -157 214 -197 2 -1 -6 -17 -18 -35 -32 -52 -60 -155 -60 -218 0 -235 221
-437 457 -418 177 14 352 177 383 357 14 79 -5 186 -45 257 -14 26 -24 47 -23
47 119 53 195 121 240 214 29 61 32 76 33 162 0 52 -3 109 -7 126 -7 29 -4 33
33 50 63 28 144 116 186 202 35 70 38 83 37 157 0 72 -4 90 -37 158 -20 42
-47 88 -61 101 l-24 25 39 53 c86 115 122 242 100 350 -13 61 -64 148 -87 148
-21 0 -18 8 27 58 89 102 131 233 109 345 -28 143 -108 246 -242 309 l-76 37
16 62 c12 50 13 74 4 132 -18 119 -101 250 -185 294 -21 10 -27 19 -22 31 4 9
12 47 18 84 21 131 -22 264 -114 356 -67 67 -122 99 -212 121 l-72 19 2 99 c1
61 9 128 22 176 21 80 76 207 90 207 4 0 29 -44 56 -97 42 -86 61 -111 154
-203 65 -65 134 -122 178 -149 74 -44 160 -81 191 -81 9 0 32 -23 51 -50 42
-63 160 -175 241 -230 135 -92 367 -177 530 -196 73 -8 85 5 77 84 -4 31 -9
72 -13 90 l-7 34 65 -7 c173 -19 453 82 574 206 44 45 42 74 -5 64 -49 -11
-138 12 -251 64 -125 57 -250 97 -333 106 -49 6 -57 9 -52 23 19 50 56 215 53
239 -3 27 -4 28 -63 27 -80 -1 -208 -28 -332 -69 -169 -57 -297 -129 -426
-244 l-69 -60 -64 24 c-79 30 -183 97 -247 159 -97 94 -167 239 -167 345 0
113 71 237 204 356 42 38 76 74 76 81 0 11 -120 114 -133 114 -3 0 -28 -18
-57 -41z m-284 -1310 c88 -42 143 -137 130 -222 -22 -133 -154 -230 -271 -197
-91 25 -165 124 -165 221 0 83 64 177 142 209 41 16 119 11 164 -11z m-289
-563 c123 -57 157 -190 79 -303 -70 -101 -184 -128 -283 -67 -93 57 -125 168
-78 267 54 115 167 156 282 103z m492 -2 c73 -37 111 -96 111 -173 -1 -164
-160 -276 -297 -210 -58 28 -109 90 -123 149 -10 40 -9 58 4 102 40 137 176
196 305 132z m-796 -514 c15 -5 41 -19 58 -31 16 -11 37 -18 45 -15 13 5 14 2
8 -11 -41 -95 -56 -161 -51 -233 7 -117 37 -182 122 -268 97 -96 160 -126 270
-127 68 0 88 4 133 28 123 64 231 213 254 348 9 55 8 75 -10 144 -11 44 -23
87 -26 95 -5 11 12 26 62 53 56 30 80 37 125 37 150 0 262 -148 217 -285 -16
-50 -75 -114 -125 -136 -43 -20 -147 -25 -187 -10 -22 8 -26 4 -52 -45 -16
-29 -26 -61 -22 -69 3 -9 32 -28 63 -43 59 -27 142 -35 204 -19 24 6 28 2 53
-52 74 -166 -30 -351 -198 -351 -27 0 -25 -3 48 -80 112 -120 165 -246 147
-346 -20 -106 -127 -260 -219 -315 -20 -13 -38 -23 -40 -24 -1 -1 5 -30 14
-64 19 -77 8 -139 -38 -202 -39 -55 -122 -93 -184 -86 -58 6 -118 47 -155 104
-23 38 -29 58 -29 105 0 32 7 75 15 95 28 67 -27 74 -60 8 -15 -31 -20 -60
-20 -125 0 -47 4 -98 8 -115 8 -30 8 -30 -51 -49 -118 -37 -188 -15 -257 83
-26 38 -30 51 -29 109 0 42 7 79 17 98 16 31 18 32 59 22 58 -13 125 -2 197
32 34 16 61 31 61 34 0 2 -15 27 -34 55 -19 27 -36 55 -38 61 -2 7 -15 6 -40
-5 -46 -19 -128 -20 -171 -1 -77 31 -137 123 -137 207 0 89 64 184 141 211
l28 9 -21 21 c-21 21 -78 135 -78 157 0 9 -6 11 -17 6 -31 -12 -91 -18 -118
-11 -37 9 -115 84 -136 131 -27 59 -24 136 7 205 l26 58 76 4 c52 2 96 11 134
27 l57 24 -18 26 c-10 14 -28 45 -40 68 -19 39 -23 42 -47 33 -35 -14 -102
-12 -147 4 -58 21 -105 63 -133 119 -22 43 -25 60 -21 104 7 62 44 132 86 162
36 26 128 51 161 44 14 -2 38 -9 53 -13z m536 -99 c52 -27 108 -92 117 -136
26 -139 -88 -273 -223 -263 -143 12 -233 176 -166 303 25 46 67 90 103 104 43
17 127 13 169 -8z m-686 -1121 c-33 -82 -42 -202 -19 -275 17 -55 15 -65 -10
-44 -58 47 -71 186 -28 279 22 48 72 115 80 107 2 -2 -9 -32 -23 -67z m698
-1096 c68 -20 133 -83 150 -146 17 -65 -2 -135 -53 -193 -45 -51 -76 -70 -131
-80 -117 -22 -247 95 -247 221 0 72 84 186 148 200 15 3 32 7 37 9 21 7 43 4
96 -11z"/>
<path d="M3949 3497 l-65 -62 23 -34 c79 -116 33 -280 -94 -338 -182 -84 -347
103 -274 311 12 33 20 60 19 61 -2 1 -23 9 -47 19 -24 9 -55 26 -69 37 -14 10
-29 19 -34 19 -5 0 -23 -30 -41 -67 -27 -60 -31 -78 -31 -158 -1 -110 19 -180
74 -263 71 -106 191 -167 326 -167 71 1 89 5 150 35 84 41 156 112 204 200 34
63 35 68 35 175 0 103 -2 114 -32 175 -17 36 -42 77 -55 92 l-23 26 -66 -61z"/>
<path d="M4077 2989 l-48 -60 27 -32 c64 -76 82 -181 45 -264 -22 -48 -85 -98
-144 -114 -79 -21 -165 15 -222 94 -27 38 -30 51 -33 130 -4 83 -5 87 -27 87
-19 0 -27 -10 -44 -55 -25 -67 -27 -129 -4 -208 21 -75 88 -151 170 -192 51
-26 69 -30 143 -30 75 0 91 3 137 29 73 40 149 120 186 196 29 59 32 73 32
160 0 86 -3 101 -31 160 -27 55 -114 160 -133 160 -3 0 -28 -28 -54 -61z"/>
<path d="M4444 4968 c-67 -7 -194 -56 -234 -90 l-25 -20 25 -16 c14 -9 48 -40
76 -70 l52 -53 42 21 c154 78 333 -24 333 -190 0 -102 -72 -198 -171 -226 -30
-9 -50 -19 -45 -23 4 -4 27 -22 50 -39 23 -18 54 -52 68 -75 26 -41 29 -43 79
-43 64 -1 120 -29 170 -84 45 -50 57 -80 58 -145 1 -123 -124 -238 -242 -222
-37 5 -39 3 -79 -54 l-40 -60 32 -19 c134 -82 283 -59 411 65 98 94 143 210
133 340 -12 134 -110 280 -225 334 l-52 24 19 31 c60 97 68 273 17 379 -79
165 -257 258 -452 235z"/>
<path d="M2759 4957 c-62 -18 -142 -70 -184 -121 -19 -23 -49 -73 -67 -112
-31 -64 -33 -76 -33 -169 0 -72 6 -113 18 -145 10 -25 21 -52 23 -61 4 -11
-15 -25 -70 -52 -124 -62 -202 -168 -226 -310 -23 -131 19 -256 120 -357 120
-120 283 -158 422 -98 75 32 77 39 21 103 -46 54 -49 56 -88 50 -91 -13 -213
60 -251 150 -33 81 -8 183 61 244 55 48 100 64 176 64 61 -1 68 1 80 24 7 14
39 49 70 78 l57 52 -37 12 c-50 15 -129 85 -152 136 -24 52 -24 138 0 190 48
108 185 154 311 106 l49 -19 71 69 71 69 -47 30 c-82 52 -150 72 -254 76 -59
3 -112 -1 -141 -9z"/>
</g>
</svg>
