<?xml version="1.0" standalone="no"?>
<!DOCTYPE svg PUBLIC "-//W3C//DTD SVG 20010904//EN"
 "http://www.w3.org/TR/2001/REC-SVG-20010904/DTD/svg10.dtd">
<svg version="1.0" xmlns="http://www.w3.org/2000/svg"
 width="1289.754488pt" height="1608.829181pt" viewBox="0 0 1289.754488 1608.829181"
 preserveAspectRatio="xMidYMid meet">

<g transform="translate(-355.356584,1806.857644) scale(0.100000,-0.100000)"
fill="#000000" stroke="none">
<path d="M6220 18055 c-182 -19 -360 -52 -522 -99 -76 -22 -371 -121 -768
-258 -323 -111 -645 -165 -825 -138 -44 6 -156 37 -248 68 l-169 56 -36 -19
c-106 -57 -130 -218 -55 -371 36 -74 182 -229 272 -287 80 -53 124 -71 252
-102 54 -13 103 -26 107 -29 5 -3 12 -40 16 -83 3 -43 11 -109 16 -148 5 -38
16 -131 25 -205 47 -408 169 -920 284 -1199 41 -97 188 -382 237 -457 220
-338 477 -587 745 -723 254 -129 493 -161 801 -105 34 6 38 4 48 -20 22 -59
33 -210 21 -291 -16 -109 -48 -179 -200 -430 -323 -537 -443 -864 -473 -1286
-31 -434 58 -783 295 -1164 57 -91 204 -291 236 -319 27 -25 27 -48 -3 -83
-49 -59 -140 -213 -243 -413 -256 -495 -348 -814 -393 -1360 -6 -74 -14 -145
-17 -158 -3 -14 -30 -39 -67 -64 -70 -47 -213 -188 -302 -298 -189 -233 -363
-587 -434 -883 -101 -426 -106 -781 -16 -1227 118 -586 413 -1163 875 -1710
170 -202 238 -277 376 -418 123 -126 129 -134 111 -148 -12 -9 -45 -14 -85
-14 -143 0 -355 -50 -460 -107 -25 -14 -76 -48 -112 -74 -216 -159 -349 -433
-351 -724 -2 -206 40 -319 137 -369 37 -19 56 -21 265 -21 l224 0 -3 130 c-6
317 70 558 231 730 95 102 184 145 301 145 48 0 66 -5 98 -27 54 -39 50 -55
-18 -83 -187 -76 -291 -201 -352 -420 -29 -103 -46 -295 -35 -395 l9 -80 464
-3 c317 -1 468 1 475 8 7 7 16 118 23 273 6 144 19 370 28 502 8 132 20 337
25 455 6 118 15 301 20 405 5 105 10 235 10 291 0 98 -1 102 -33 147 -18 26
-58 73 -88 104 -258 273 -536 643 -689 918 -213 384 -405 868 -470 1190 -4 22
-17 85 -29 140 -45 212 -55 281 -77 525 -16 182 -31 741 -21 782 31 122 214
140 412 43 249 -124 494 -382 700 -740 179 -311 306 -594 430 -959 56 -166
149 -398 177 -444 17 -27 19 -43 14 -85 -28 -235 -51 -693 -66 -1297 -22 -895
-31 -1203 -40 -1312 -6 -64 -10 -170 -10 -235 0 -65 -5 -179 -10 -253 -6 -74
-15 -213 -21 -310 -5 -96 -12 -205 -15 -242 -8 -81 10 -140 62 -207 61 -81 74
-86 274 -89 104 -2 186 1 202 7 l26 10 4 323 c3 283 5 327 20 355 48 86 155
109 214 46 l24 -26 0 -341 c0 -196 4 -347 10 -356 12 -20 134 -25 273 -11 123
12 145 21 208 88 82 85 82 83 90 393 13 465 46 1244 54 1277 3 12 10 98 15
190 6 92 17 278 25 413 8 135 19 324 25 420 9 164 15 264 40 665 14 226 30
491 40 690 30 582 85 847 262 1275 108 262 210 424 367 581 189 189 378 269
631 269 377 -1 718 -242 962 -681 81 -144 99 -184 160 -344 58 -153 127 -388
157 -533 40 -195 74 -569 111 -1212 5 -96 14 -238 20 -315 22 -299 31 -436 40
-605 6 -96 17 -290 25 -430 8 -140 19 -331 25 -425 40 -691 54 -987 65 -1339
6 -189 14 -218 80 -294 70 -80 91 -86 331 -90 191 -4 212 -2 228 14 17 16 18
43 15 353 -3 278 -1 340 11 358 43 66 167 55 207 -20 16 -28 19 -71 23 -353 4
-252 8 -325 19 -337 11 -14 35 -17 150 -16 75 0 160 4 189 8 62 9 122 47 169
109 52 69 57 102 39 281 -9 86 -23 266 -31 401 -8 135 -20 315 -25 400 -9 146
-18 318 -40 780 -22 467 -64 1164 -90 1470 -5 63 -12 158 -15 210 -4 52 -13
142 -21 200 -16 118 -14 134 31 241 18 42 52 132 75 200 186 548 320 859 490
1139 277 455 517 687 815 784 128 42 265 32 294 -21 16 -30 31 -278 31 -508 0
-555 -97 -1079 -294 -1597 -30 -81 -68 -176 -83 -210 -128 -291 -335 -651
-487 -848 -155 -199 -254 -316 -387 -455 -53 -55 -101 -110 -108 -122 -8 -17
-9 -45 -2 -110 11 -96 26 -421 42 -863 5 -157 16 -373 24 -480 8 -107 20 -287
26 -400 6 -113 15 -208 18 -213 4 -4 227 -7 496 -7 407 0 491 2 503 14 37 36
19 321 -30 469 -66 202 -232 383 -400 437 -47 14 -48 34 -5 57 24 14 55 18
127 18 84 0 102 -3 152 -28 117 -57 202 -147 271 -283 73 -144 97 -263 106
-504 l6 -175 190 0 c242 0 278 8 340 77 65 72 80 129 79 303 -1 169 -16 239
-84 390 -76 169 -232 336 -385 412 -122 61 -335 113 -462 113 -64 0 -73 2 -73
19 0 10 35 51 78 92 114 109 382 419 529 610 120 158 296 445 403 659 301 601
430 1425 309 1975 -78 355 -235 694 -440 952 -97 121 -281 315 -360 379 l-66
54 -12 152 c-35 451 -152 873 -343 1240 -106 203 -205 362 -297 477 -51 64
-98 126 -104 138 -11 25 -7 32 99 180 177 243 321 557 373 813 68 333 40 723
-75 1060 -76 221 -177 427 -349 710 -164 270 -194 334 -216 470 -11 71 -7 227
7 264 5 14 28 16 173 16 240 1 412 41 591 139 315 171 588 476 800 896 115
227 196 445 270 730 89 339 122 539 160 965 19 209 19 210 43 220 12 5 65 19
119 29 124 26 205 63 300 140 237 191 318 446 186 584 -37 39 -38 40 -95 34
-32 -3 -103 -23 -158 -44 -202 -80 -389 -90 -650 -38 -173 35 -211 46 -625
185 -540 180 -686 222 -935 266 -145 26 -546 26 -700 1 -404 -67 -786 -242
-1065 -488 -52 -46 -147 -135 -210 -199 -136 -135 -216 -194 -263 -193 -18 0
-80 17 -138 38 -287 101 -422 138 -710 195 -108 21 -205 105 -260 226 -27 59
-32 84 -37 171 -3 64 -9 107 -17 113 -20 16 -92 -27 -160 -95 -67 -67 -108
-142 -141 -255 -13 -44 -27 -75 -35 -75 -7 0 -44 38 -82 85 -158 196 -336 339
-423 340 -41 0 -44 -18 -22 -152 12 -69 18 -134 14 -143 -6 -16 -8 -16 -29 -2
-12 9 -80 45 -152 81 -134 67 -249 111 -266 101 -18 -12 -8 -77 30 -187 21
-62 45 -128 52 -145 9 -21 10 -36 4 -42 -6 -5 -55 -17 -110 -26 -273 -44 -418
-83 -671 -179 -151 -56 -190 -63 -236 -42 -44 21 -161 117 -268 219 -249 240
-420 367 -600 449 -19 9 -70 32 -113 52 -43 20 -83 36 -88 36 -5 0 -17 4 -27
10 -30 17 -214 68 -322 90 -124 25 -366 50 -465 49 -38 -1 -126 -7 -195 -14z
m420 -581 c116 -7 234 -32 360 -74 107 -36 161 -62 270 -128 170 -101 246
-169 591 -527 186 -194 286 -238 459 -205 28 5 130 43 224 85 321 139 597 228
816 263 376 62 668 75 995 47 416 -36 729 -114 1151 -285 234 -96 280 -110
354 -110 123 0 224 74 462 343 162 181 251 265 366 345 128 89 316 168 517
219 108 27 116 28 400 28 277 0 296 -2 430 -28 152 -30 289 -65 485 -121 127
-36 328 -78 433 -91 93 -11 89 -44 -12 -91 -92 -44 -330 -67 -462 -45 -30 5
-115 17 -189 26 -74 9 -168 20 -208 26 -116 15 -396 11 -480 -6 -186 -39 -255
-69 -366 -161 -80 -66 -150 -149 -231 -274 -148 -227 -222 -423 -255 -673 -32
-247 16 -395 185 -576 50 -54 111 -127 137 -162 169 -238 268 -558 269 -869 0
-137 -8 -193 -63 -435 -18 -81 -22 -131 -23 -265 0 -153 2 -172 29 -265 35
-119 88 -234 191 -410 103 -177 237 -451 274 -560 77 -231 106 -397 106 -610
0 -251 -40 -433 -140 -638 -103 -213 -238 -388 -443 -577 -237 -218 -433 -341
-757 -477 -161 -67 -185 -76 -310 -106 -305 -75 -618 -97 -880 -61 -277 37
-290 36 -388 -52 -143 -128 -344 -240 -522 -290 -197 -56 -538 -56 -765 0
-144 35 -348 149 -469 262 -120 112 -139 117 -321 89 -52 -8 -168 -20 -257
-27 -142 -10 -182 -9 -330 6 -474 51 -978 262 -1323 553 -623 525 -819 1204
-551 1915 42 113 160 353 249 508 102 177 112 195 153 274 74 144 92 213 97
369 4 150 -6 228 -59 435 -63 247 -75 386 -50 582 14 111 62 298 97 384 75
178 131 262 297 443 118 127 157 220 157 373 -1 256 -104 578 -268 830 -182
281 -353 407 -637 467 -145 30 -582 17 -715 -22 -46 -14 -247 -35 -330 -35
-154 0 -293 30 -365 79 -64 43 -54 54 55 67 131 15 288 50 602 133 307 81 602
124 788 115 41 -2 118 -6 170 -10z"/>
<path d="M7955 14060 c-117 -24 -206 -77 -279 -166 -162 -196 -191 -444 -75
-641 48 -82 161 -192 232 -226 202 -97 419 -57 599 112 128 120 189 252 190
407 1 149 -40 243 -151 354 -122 121 -245 171 -411 169 -36 -1 -83 -5 -105 -9z
m186 -203 c41 -28 79 -91 79 -133 0 -48 -26 -100 -66 -131 -29 -22 -47 -27
-88 -27 -159 0 -227 204 -97 291 47 32 125 32 172 0z"/>
<path d="M11850 14054 c-78 -21 -177 -79 -235 -139 -100 -102 -162 -271 -152
-415 16 -245 197 -458 438 -515 113 -26 209 -14 324 41 90 43 212 169 261 270
39 78 39 80 39 199 0 141 -18 205 -91 322 -75 121 -185 205 -309 238 -74 19
-202 18 -275 -1z m251 -188 c155 -65 116 -298 -49 -298 -92 0 -153 55 -159
146 -9 120 98 198 208 152z"/>
<path d="M9890 13304 c-14 -2 -59 -9 -100 -15 -102 -15 -284 -63 -394 -104
-200 -75 -346 -161 -522 -309 -266 -223 -421 -513 -488 -917 -4 -25 -2 -40 8
-48 15 -13 32 8 56 69 119 306 399 586 765 765 165 81 279 118 470 156 96 19
540 19 650 0 454 -78 907 -337 1146 -654 54 -71 179 -306 179 -335 0 -18 22
-26 31 -11 32 50 -66 386 -164 569 -72 132 -122 198 -240 318 -269 274 -675
464 -1092 512 -85 9 -251 12 -305 4z"/>
<path d="M9286 12244 c-128 -31 -232 -117 -291 -238 -92 -192 -63 -378 85
-526 89 -90 158 -122 272 -128 111 -6 172 13 261 80 115 86 189 201 208 323
19 120 -38 263 -149 372 -65 64 -122 96 -207 119 -62 17 -103 16 -179 -2z"/>
<path d="M10588 12241 c-179 -58 -317 -239 -318 -418 0 -170 120 -361 275
-438 55 -27 69 -30 165 -30 97 0 110 2 165 30 81 41 198 158 233 232 24 52 27
70 27 164 0 101 -1 108 -37 181 -49 98 -149 207 -224 244 -55 27 -157 53 -204
53 -14 0 -51 -8 -82 -18z"/>
<path d="M11505 11095 c-215 -232 -458 -358 -776 -405 -131 -19 -286 8 -474
83 -214 85 -240 86 -452 9 -202 -73 -272 -85 -451 -80 -126 4 -158 9 -223 32
-227 79 -439 227 -553 384 -36 51 -77 76 -109 67 -55 -17 -129 -60 -178 -105
-67 -60 -61 -75 27 -62 32 6 69 6 81 1 12 -4 49 -48 82 -98 73 -108 208 -252
299 -319 86 -63 210 -130 348 -188 142 -59 218 -101 334 -184 209 -150 400
-220 598 -220 206 0 314 43 637 250 130 83 211 127 406 218 135 63 213 112
323 201 79 64 202 206 248 288 l31 55 80 -4 c54 -2 81 1 84 9 8 21 -209 173
-248 173 -9 0 -61 -47 -114 -105z"/>
<path d="M11190 3609 c-19 -5 -69 -13 -110 -18 -41 -5 -140 -18 -220 -29 -413
-58 -741 -74 -1060 -52 -153 10 -215 17 -450 51 -213 31 -278 38 -343 39 -53
0 -58 -2 -67 -26 -6 -14 -10 -105 -10 -202 -1 -97 -7 -355 -14 -572 -7 -217
-11 -400 -9 -406 5 -15 75 -24 179 -24 45 0 163 -6 261 -14 571 -46 871 -46
1623 4 296 20 373 29 394 50 17 17 18 28 7 216 -6 110 -13 309 -16 444 -8 341
-22 510 -42 532 -17 19 -63 22 -123 7z"/>
</g>
</svg>
